<svg xmlns="http://www.w3.org/2000/svg" viewBox="0 0 512 512">
  <rect width="512" height="512" rx="108" fill="#171a18"/>
  <circle cx="256" cy="256" r="184" fill="none" stroke="#b89a5d" stroke-width="8"/>
  <path fill="#e9e3d5" d="M256 104c-83 0-135 59-135 145 0 61 27 94 56 115l7 64h144l7-64c29-22 56-55 56-115 0-86-51-145-135-145Z"/>
  <path fill="#272c28" d="M166 244c6-31 30-46 65-33 12 5 15 22 3 42-13 21-56 18-68-9Zm180 0c-6-31-30-46-65-33-12 5-15 22-3 42 13 21 56 18 68-9Zm-110 75 20-46 21 46-9 19h-23Zm-39 43h118v66H197Z"/>
  <path fill="#b89a5d" d="M208 357v71h16v-71h13v71h16v-71h13v71h16v-71h13v71h20v-82H197v82h11Z"/>
</svg>
